%TF.GenerationSoftware,KiCad,Pcbnew,8.0.6*%
%TF.CreationDate,2025-01-06T02:22:49+02:00*%
%TF.ProjectId,button new,62757474-6f6e-4206-9e65-772e6b696361,rev?*%
%TF.SameCoordinates,Original*%
%TF.FileFunction,Copper,L2,Bot*%
%TF.FilePolarity,Positive*%
%FSLAX46Y46*%
G04 Gerber Fmt 4.6, Leading zero omitted, Abs format (unit mm)*
G04 Created by KiCad (PCBNEW 8.0.6) date 2025-01-06 02:22:49*
%MOMM*%
%LPD*%
G01*
G04 APERTURE LIST*
G04 Aperture macros list*
%AMRoundRect*
0 Rectangle with rounded corners*
0 $1 Rounding radius*
0 $2 $3 $4 $5 $6 $7 $8 $9 X,Y pos of 4 corners*
0 Add a 4 corners polygon primitive as box body*
4,1,4,$2,$3,$4,$5,$6,$7,$8,$9,$2,$3,0*
0 Add four circle primitives for the rounded corners*
1,1,$1+$1,$2,$3*
1,1,$1+$1,$4,$5*
1,1,$1+$1,$6,$7*
1,1,$1+$1,$8,$9*
0 Add four rect primitives between the rounded corners*
20,1,$1+$1,$2,$3,$4,$5,0*
20,1,$1+$1,$4,$5,$6,$7,0*
20,1,$1+$1,$6,$7,$8,$9,0*
20,1,$1+$1,$8,$9,$2,$3,0*%
G04 Aperture macros list end*
%TA.AperFunction,ComponentPad*%
%ADD10R,1.600000X1.600000*%
%TD*%
%TA.AperFunction,ComponentPad*%
%ADD11O,1.600000X1.600000*%
%TD*%
%TA.AperFunction,ComponentPad*%
%ADD12RoundRect,0.250000X-0.600000X-0.750000X0.600000X-0.750000X0.600000X0.750000X-0.600000X0.750000X0*%
%TD*%
%TA.AperFunction,ComponentPad*%
%ADD13O,1.700000X2.000000*%
%TD*%
%TA.AperFunction,ComponentPad*%
%ADD14R,2.000000X1.600000*%
%TD*%
%TA.AperFunction,ComponentPad*%
%ADD15C,1.600000*%
%TD*%
%TA.AperFunction,ComponentPad*%
%ADD16RoundRect,0.200100X0.949900X0.949900X-0.949900X0.949900X-0.949900X-0.949900X0.949900X-0.949900X0*%
%TD*%
%TA.AperFunction,ComponentPad*%
%ADD17C,2.500000*%
%TD*%
%TA.AperFunction,ComponentPad*%
%ADD18C,1.750000*%
%TD*%
%TA.AperFunction,ComponentPad*%
%ADD19R,3.500000X5.000000*%
%TD*%
%TA.AperFunction,ComponentPad*%
%ADD20R,1.700000X2.000000*%
%TD*%
%TA.AperFunction,Conductor*%
%ADD21C,0.600000*%
%TD*%
%TA.AperFunction,Profile*%
%ADD22C,0.050000*%
%TD*%
G04 APERTURE END LIST*
D10*
%TO.P,D1,1,K*%
%TO.N,Net-(A1-D6)*%
X160080000Y-106110000D03*
D11*
%TO.P,D1,2,A*%
%TO.N,GNDREF*%
X167700000Y-106110000D03*
%TD*%
D12*
%TO.P,Button1,1,Pin_1*%
%TO.N,Net-(A1-D2)*%
X122890000Y-111610000D03*
D13*
%TO.P,Button1,2,Pin_2*%
%TO.N,GNDREF*%
X125390000Y-111610000D03*
%TD*%
D12*
%TO.P,Power1,1,Pin_1*%
%TO.N,Vcc 1*%
X134390000Y-111610000D03*
D13*
%TO.P,Power1,2,Pin_2*%
%TO.N,GNDREF*%
X136890000Y-111610000D03*
%TD*%
D14*
%TO.P,A1,1,D1/TX*%
%TO.N,unconnected-(A1-D1{slash}TX-Pad1)*%
X145500000Y-96160000D03*
%TO.P,A1,2,D0/RX*%
%TO.N,unconnected-(A1-D0{slash}RX-Pad2)*%
X145500000Y-93620000D03*
%TO.P,A1,3,~{RESET}*%
%TO.N,unconnected-(A1-~{RESET}-Pad3)*%
X145500000Y-91080000D03*
%TO.P,A1,4,GND*%
%TO.N,unconnected-(A1-GND-Pad4)*%
X145500000Y-88540000D03*
%TO.P,A1,5,D2*%
%TO.N,Net-(A1-D2)*%
X145500000Y-86000000D03*
%TO.P,A1,6,D3*%
%TO.N,Net-(A1-D3)*%
X145500000Y-83460000D03*
%TO.P,A1,7,D4*%
%TO.N,Net-(A1-D4)*%
X145500000Y-80920000D03*
%TO.P,A1,8,D5*%
%TO.N,unconnected-(A1-D5-Pad8)*%
X145500000Y-78380000D03*
%TO.P,A1,9,D6*%
%TO.N,Net-(A1-D6)*%
X145500000Y-75840000D03*
%TO.P,A1,10,D7*%
%TO.N,unconnected-(A1-D7-Pad10)*%
X145500000Y-73300000D03*
%TO.P,A1,11,D8*%
%TO.N,unconnected-(A1-D8-Pad11)*%
X145500000Y-70760000D03*
%TO.P,A1,12,D9*%
%TO.N,unconnected-(A1-D9-Pad12)*%
X145500000Y-68220000D03*
%TO.P,A1,13,D10*%
%TO.N,unconnected-(A1-D10-Pad13)*%
X145500000Y-65680000D03*
%TO.P,A1,14,D11*%
%TO.N,unconnected-(A1-D11-Pad14)*%
X145500000Y-63140000D03*
%TO.P,A1,15,D12*%
%TO.N,unconnected-(A1-D12-Pad15)*%
X145500000Y-60600000D03*
%TO.P,A1,16,D13*%
%TO.N,unconnected-(A1-D13-Pad16)*%
X130260000Y-60600000D03*
%TO.P,A1,17,3V3*%
%TO.N,unconnected-(A1-3V3-Pad17)*%
X130260000Y-63140000D03*
%TO.P,A1,18,AREF*%
%TO.N,unconnected-(A1-AREF-Pad18)*%
X130260000Y-65680000D03*
%TO.P,A1,19,A0*%
%TO.N,Vcc 1*%
X130260000Y-68220000D03*
%TO.P,A1,20,A1*%
%TO.N,unconnected-(A1-A1-Pad20)*%
X130260000Y-70760000D03*
%TO.P,A1,21,A2*%
%TO.N,unconnected-(A1-A2-Pad21)*%
X130260000Y-73300000D03*
%TO.P,A1,22,A3*%
%TO.N,unconnected-(A1-A3-Pad22)*%
X130260000Y-75840000D03*
%TO.P,A1,23,A4*%
%TO.N,unconnected-(A1-A4-Pad23)*%
X130260000Y-78380000D03*
%TO.P,A1,24,A5*%
%TO.N,unconnected-(A1-A5-Pad24)*%
X130260000Y-80920000D03*
%TO.P,A1,25,A6*%
%TO.N,unconnected-(A1-A6-Pad25)*%
X130260000Y-83460000D03*
%TO.P,A1,26,A7*%
%TO.N,unconnected-(A1-A7-Pad26)*%
X130260000Y-86000000D03*
%TO.P,A1,27,+5V*%
%TO.N,Vcc 1*%
X130260000Y-88540000D03*
%TO.P,A1,28,~{RESET}*%
%TO.N,unconnected-(A1-~{RESET}-Pad28)*%
X130260000Y-91080000D03*
%TO.P,A1,29,GND*%
%TO.N,GNDREF*%
X130260000Y-93620000D03*
%TO.P,A1,30,VIN*%
%TO.N,unconnected-(A1-VIN-Pad30)*%
X130260000Y-96160000D03*
%TD*%
D15*
%TO.P,C1,1*%
%TO.N,GNDREF*%
X126390000Y-104610000D03*
%TO.P,C1,2*%
%TO.N,Net-(A1-D2)*%
X121390000Y-104610000D03*
%TD*%
D12*
%TO.P,Power2,1,Pin_1*%
%TO.N,GNDREF*%
X145754283Y-111584199D03*
D13*
%TO.P,Power2,2,Pin_2*%
%TO.N,Net-(K1-NO)*%
X148254283Y-111584199D03*
%TD*%
D16*
%TO.P,ANT,1*%
%TO.N,N/C*%
X104930000Y-104070000D03*
D17*
%TO.P,ANT,2*%
X107470000Y-106610000D03*
X107470000Y-101530000D03*
X102390000Y-106610000D03*
X102390000Y-101530000D03*
%TD*%
D18*
%TO.P,K1,1,NO*%
%TO.N,Net-(K1-NO)*%
X167200000Y-110825000D03*
%TO.P,K1,2,COIL_1*%
%TO.N,GNDREF*%
X167200000Y-113365000D03*
%TO.P,K1,3,COM_1*%
%TO.N,unconnected-(K1-COM_1-Pad3)*%
X167200000Y-123525000D03*
%TO.P,K1,4,COM_2*%
%TO.N,Net-(K1-COM_2)*%
X159580000Y-123525000D03*
%TO.P,K1,5,COIL_2*%
%TO.N,Net-(A1-D6)*%
X159580000Y-113365000D03*
%TO.P,K1,6,NC*%
%TO.N,unconnected-(K1-NC-Pad6)*%
X159580000Y-110825000D03*
%TD*%
D19*
%TO.P,U1,1,VIN+*%
%TO.N,Net-(K1-COM_2)*%
X164590000Y-93110000D03*
%TO.P,U1,2,VIN-*%
%TO.N,GNDREF*%
X158140000Y-93110000D03*
%TO.P,U1,3,VOUT-*%
%TO.N,Net-(SIM800LV2-5V)*%
X158140000Y-62110000D03*
%TO.P,U1,4,VOUT+*%
%TO.N,Net-(U1-VOUT+)*%
X164640000Y-62110000D03*
%TD*%
D20*
%TO.P,SIM800LV2,1,5V*%
%TO.N,Net-(SIM800LV2-5V)*%
X107810000Y-58610000D03*
%TO.P,SIM800LV2,2,GND*%
%TO.N,Net-(U1-VOUT+)*%
X110350000Y-58610000D03*
%TO.P,SIM800LV2,3,VDD*%
%TO.N,unconnected-(SIM800LV2-VDD-Pad3)*%
X112890000Y-58610000D03*
%TO.P,SIM800LV2,4,SIM_TX*%
%TO.N,Net-(A1-D3)*%
X115430000Y-58610000D03*
%TO.P,SIM800LV2,5,SIM_RX*%
%TO.N,Net-(A1-D4)*%
X117970000Y-58610000D03*
%TO.P,SIM800LV2,6,GND*%
%TO.N,unconnected-(SIM800LV2-GND-Pad6)*%
X120510000Y-58610000D03*
%TO.P,SIM800LV2,7,RST*%
%TO.N,unconnected-(SIM800LV2-RST-Pad7)*%
X123050000Y-58610000D03*
%TD*%
D21*
%TO.N,Net-(A1-D6)*%
X149357500Y-104642500D02*
X148390000Y-103675000D01*
X160080000Y-106110000D02*
X150825000Y-106110000D01*
X157107500Y-112392500D02*
X149357500Y-104642500D01*
X159580000Y-113365000D02*
X158080000Y-113365000D01*
X147120000Y-75840000D02*
X145500000Y-75840000D01*
X148390000Y-77110000D02*
X147120000Y-75840000D01*
X158080000Y-113365000D02*
X157107500Y-112392500D01*
X150825000Y-106110000D02*
X149357500Y-104642500D01*
X148390000Y-103675000D02*
X148390000Y-77110000D01*
%TO.N,GNDREF*%
X168135000Y-113365000D02*
X167200000Y-113365000D01*
X139390000Y-109110000D02*
X137526396Y-110973604D01*
X122390000Y-116110000D02*
X125390000Y-113110000D01*
X169740000Y-106110000D02*
X171390000Y-107760000D01*
X130260000Y-93620000D02*
X122380000Y-93620000D01*
X169645000Y-113365000D02*
X171390000Y-115110000D01*
X143280084Y-109110000D02*
X145754283Y-111584199D01*
X158140000Y-94860000D02*
X158140000Y-93110000D01*
X167200000Y-113365000D02*
X168390000Y-113365000D01*
X145754283Y-122474283D02*
X145754283Y-111584199D01*
X118890000Y-116110000D02*
X122390000Y-116110000D01*
X171390000Y-115110000D02*
X171390000Y-123610000D01*
X167700000Y-106110000D02*
X169740000Y-106110000D01*
X169635000Y-113365000D02*
X171390000Y-111610000D01*
X171390000Y-123610000D02*
X167390000Y-127610000D01*
X126390000Y-110610000D02*
X125390000Y-111610000D01*
X167700000Y-106110000D02*
X167700000Y-104420000D01*
X116390000Y-113610000D02*
X118890000Y-116110000D01*
X167390000Y-127610000D02*
X150890000Y-127610000D01*
X171390000Y-107760000D02*
X171390000Y-110110000D01*
X134390000Y-111610000D02*
X125390000Y-111610000D01*
X125390000Y-113110000D02*
X125390000Y-111610000D01*
X126390000Y-105110000D02*
X126390000Y-110610000D01*
X168390000Y-113365000D02*
X169635000Y-113365000D01*
X150890000Y-127610000D02*
X145754283Y-122474283D01*
X168390000Y-113365000D02*
X169645000Y-113365000D01*
X122380000Y-93620000D02*
X116390000Y-99610000D01*
X171390000Y-111610000D02*
X171390000Y-110110000D01*
X143280084Y-109110000D02*
X139390000Y-109110000D01*
X167700000Y-104420000D02*
X158140000Y-94860000D01*
X116390000Y-99610000D02*
X116390000Y-113610000D01*
%TO.N,Net-(A1-D3)*%
X134890000Y-60610000D02*
X134890000Y-79110000D01*
X132890000Y-58610000D02*
X134890000Y-60610000D01*
X116480000Y-61110000D02*
X124390000Y-61110000D01*
X124390000Y-61110000D02*
X126890000Y-58610000D01*
X134890000Y-79110000D02*
X139240000Y-83460000D01*
X115430000Y-60060000D02*
X116480000Y-61110000D01*
X126890000Y-58610000D02*
X132890000Y-58610000D01*
X115430000Y-58610000D02*
X115430000Y-60060000D01*
X139240000Y-83460000D02*
X145500000Y-83460000D01*
%TO.N,Net-(K1-NO)*%
X152550840Y-125770840D02*
X163729160Y-125770840D01*
X148254283Y-111584199D02*
X148254283Y-121474283D01*
X148254283Y-121474283D02*
X152550840Y-125770840D01*
X163729160Y-125770840D02*
X164890000Y-124610000D01*
X164890000Y-112110000D02*
X166175000Y-110825000D01*
X166175000Y-110825000D02*
X167200000Y-110825000D01*
X164890000Y-124610000D02*
X164890000Y-112110000D01*
%TO.N,Net-(SIM800LV2-5V)*%
X107810000Y-58250000D02*
X107810000Y-58610000D01*
X158140000Y-62110000D02*
X151627800Y-55597800D01*
X151616250Y-55597800D02*
X150890000Y-54871550D01*
X111188450Y-54871550D02*
X107810000Y-58250000D01*
X150890000Y-54871550D02*
X111188450Y-54871550D01*
X151627800Y-55597800D02*
X151616250Y-55597800D01*
%TO.N,Net-(A1-D4)*%
X117970000Y-58610000D02*
X117970000Y-57466752D01*
X117970000Y-57466752D02*
X119038987Y-56397765D01*
X137890000Y-59530314D02*
X137890000Y-77477229D01*
X137890000Y-77477229D02*
X141332771Y-80920000D01*
X141332771Y-80920000D02*
X145500000Y-80920000D01*
X119038987Y-56397765D02*
X134757451Y-56397765D01*
X134757451Y-56397765D02*
X137890000Y-59530314D01*
%TO.N,Net-(A1-D2)*%
X121390000Y-104610000D02*
X118390000Y-104610000D01*
X143420000Y-86000000D02*
X145500000Y-86000000D01*
X118390000Y-102610000D02*
X120890000Y-100110000D01*
X120890000Y-100110000D02*
X129310000Y-100110000D01*
X120890000Y-111610000D02*
X118390000Y-109110000D01*
X118390000Y-104610000D02*
X118390000Y-102610000D01*
X118390000Y-109110000D02*
X118390000Y-104610000D01*
X122890000Y-111610000D02*
X120890000Y-111610000D01*
X129310000Y-100110000D02*
X143420000Y-86000000D01*
%TO.N,Net-(K1-COM_2)*%
X162890000Y-103610000D02*
X157213300Y-97933300D01*
X162890000Y-121715000D02*
X162890000Y-103610000D01*
X153390000Y-89110000D02*
X154890000Y-87610000D01*
X153390000Y-96110000D02*
X153390000Y-89110000D01*
X159580000Y-123525000D02*
X161080000Y-123525000D01*
X157213300Y-97933300D02*
X155213300Y-97933300D01*
X154890000Y-87610000D02*
X163890000Y-87610000D01*
X155213300Y-97933300D02*
X153390000Y-96110000D01*
X163890000Y-87610000D02*
X164590000Y-88310000D01*
X161080000Y-123525000D02*
X162890000Y-121715000D01*
X164590000Y-88310000D02*
X164590000Y-93110000D01*
%TO.N,Vcc 1*%
X136890000Y-111610000D02*
X136890000Y-113610000D01*
X113890000Y-96610000D02*
X121960000Y-88540000D01*
X117890000Y-119110000D02*
X113890000Y-115110000D01*
X136890000Y-113610000D02*
X131390000Y-119110000D01*
X131390000Y-119110000D02*
X117890000Y-119110000D01*
X121960000Y-88540000D02*
X130260000Y-88540000D01*
X113890000Y-115110000D02*
X113890000Y-96610000D01*
%TO.N,Net-(U1-VOUT+)*%
X106028600Y-61110000D02*
X104890000Y-59971400D01*
X164640000Y-59552899D02*
X158390000Y-53302899D01*
X104890000Y-59971400D02*
X104890000Y-56075045D01*
X110350000Y-58610000D02*
X110350000Y-60060000D01*
X107662146Y-53302899D02*
X158390000Y-53302899D01*
X164640000Y-62110000D02*
X164640000Y-59552899D01*
X109300000Y-61110000D02*
X106028600Y-61110000D01*
X110350000Y-60060000D02*
X109300000Y-61110000D01*
X104890000Y-56075045D02*
X107662146Y-53302899D01*
%TD*%
D22*
X96892500Y-52063500D02*
X174892500Y-52063500D01*
X174892500Y-130063500D01*
X96892500Y-130063500D01*
X96892500Y-52063500D01*
X100892500Y-54563500D02*
G75*
G02*
X97892500Y-54563500I-1500000J0D01*
G01*
X97892500Y-54563500D02*
G75*
G02*
X100892500Y-54563500I1500000J0D01*
G01*
X173892500Y-127563500D02*
G75*
G02*
X170892500Y-127563500I-1500000J0D01*
G01*
X170892500Y-127563500D02*
G75*
G02*
X173892500Y-127563500I1500000J0D01*
G01*
X173892500Y-54563500D02*
G75*
G02*
X170892500Y-54563500I-1500000J0D01*
G01*
X170892500Y-54563500D02*
G75*
G02*
X173892500Y-54563500I1500000J0D01*
G01*
X100892500Y-127563500D02*
G75*
G02*
X97892500Y-127563500I-1500000J0D01*
G01*
X97892500Y-127563500D02*
G75*
G02*
X100892500Y-127563500I1500000J0D01*
G01*
M02*
