%TF.GenerationSoftware,KiCad,Pcbnew,8.0.6*%
%TF.CreationDate,2025-01-06T02:22:49+02:00*%
%TF.ProjectId,button new,62757474-6f6e-4206-9e65-772e6b696361,rev?*%
%TF.SameCoordinates,Original*%
%TF.FileFunction,Legend,Top*%
%TF.FilePolarity,Positive*%
%FSLAX46Y46*%
G04 Gerber Fmt 4.6, Leading zero omitted, Abs format (unit mm)*
G04 Created by KiCad (PCBNEW 8.0.6) date 2025-01-06 02:22:49*
%MOMM*%
%LPD*%
G01*
G04 APERTURE LIST*
%ADD10C,0.400000*%
%ADD11C,0.150000*%
%ADD12C,0.120000*%
%ADD13C,0.100000*%
%ADD14C,0.200000*%
%TA.AperFunction,Profile*%
%ADD15C,0.050000*%
%TD*%
G04 APERTURE END LIST*
D10*
X104738093Y-127404438D02*
X104738093Y-125404438D01*
X104738093Y-125404438D02*
X105214283Y-125404438D01*
X105214283Y-125404438D02*
X105499998Y-125499676D01*
X105499998Y-125499676D02*
X105690474Y-125690152D01*
X105690474Y-125690152D02*
X105785712Y-125880628D01*
X105785712Y-125880628D02*
X105880950Y-126261580D01*
X105880950Y-126261580D02*
X105880950Y-126547295D01*
X105880950Y-126547295D02*
X105785712Y-126928247D01*
X105785712Y-126928247D02*
X105690474Y-127118723D01*
X105690474Y-127118723D02*
X105499998Y-127309200D01*
X105499998Y-127309200D02*
X105214283Y-127404438D01*
X105214283Y-127404438D02*
X104738093Y-127404438D01*
X107499998Y-127309200D02*
X107309522Y-127404438D01*
X107309522Y-127404438D02*
X106928569Y-127404438D01*
X106928569Y-127404438D02*
X106738093Y-127309200D01*
X106738093Y-127309200D02*
X106642855Y-127118723D01*
X106642855Y-127118723D02*
X106642855Y-126356819D01*
X106642855Y-126356819D02*
X106738093Y-126166342D01*
X106738093Y-126166342D02*
X106928569Y-126071104D01*
X106928569Y-126071104D02*
X107309522Y-126071104D01*
X107309522Y-126071104D02*
X107499998Y-126166342D01*
X107499998Y-126166342D02*
X107595236Y-126356819D01*
X107595236Y-126356819D02*
X107595236Y-126547295D01*
X107595236Y-126547295D02*
X106642855Y-126737771D01*
X108357141Y-127309200D02*
X108547617Y-127404438D01*
X108547617Y-127404438D02*
X108928569Y-127404438D01*
X108928569Y-127404438D02*
X109119046Y-127309200D01*
X109119046Y-127309200D02*
X109214284Y-127118723D01*
X109214284Y-127118723D02*
X109214284Y-127023485D01*
X109214284Y-127023485D02*
X109119046Y-126833009D01*
X109119046Y-126833009D02*
X108928569Y-126737771D01*
X108928569Y-126737771D02*
X108642855Y-126737771D01*
X108642855Y-126737771D02*
X108452379Y-126642533D01*
X108452379Y-126642533D02*
X108357141Y-126452057D01*
X108357141Y-126452057D02*
X108357141Y-126356819D01*
X108357141Y-126356819D02*
X108452379Y-126166342D01*
X108452379Y-126166342D02*
X108642855Y-126071104D01*
X108642855Y-126071104D02*
X108928569Y-126071104D01*
X108928569Y-126071104D02*
X109119046Y-126166342D01*
X110071427Y-127404438D02*
X110071427Y-126071104D01*
X110071427Y-125404438D02*
X109976189Y-125499676D01*
X109976189Y-125499676D02*
X110071427Y-125594914D01*
X110071427Y-125594914D02*
X110166665Y-125499676D01*
X110166665Y-125499676D02*
X110071427Y-125404438D01*
X110071427Y-125404438D02*
X110071427Y-125594914D01*
X111880951Y-126071104D02*
X111880951Y-127690152D01*
X111880951Y-127690152D02*
X111785713Y-127880628D01*
X111785713Y-127880628D02*
X111690475Y-127975866D01*
X111690475Y-127975866D02*
X111499998Y-128071104D01*
X111499998Y-128071104D02*
X111214284Y-128071104D01*
X111214284Y-128071104D02*
X111023808Y-127975866D01*
X111880951Y-127309200D02*
X111690475Y-127404438D01*
X111690475Y-127404438D02*
X111309522Y-127404438D01*
X111309522Y-127404438D02*
X111119046Y-127309200D01*
X111119046Y-127309200D02*
X111023808Y-127213961D01*
X111023808Y-127213961D02*
X110928570Y-127023485D01*
X110928570Y-127023485D02*
X110928570Y-126452057D01*
X110928570Y-126452057D02*
X111023808Y-126261580D01*
X111023808Y-126261580D02*
X111119046Y-126166342D01*
X111119046Y-126166342D02*
X111309522Y-126071104D01*
X111309522Y-126071104D02*
X111690475Y-126071104D01*
X111690475Y-126071104D02*
X111880951Y-126166342D01*
X112833332Y-126071104D02*
X112833332Y-127404438D01*
X112833332Y-126261580D02*
X112928570Y-126166342D01*
X112928570Y-126166342D02*
X113119046Y-126071104D01*
X113119046Y-126071104D02*
X113404761Y-126071104D01*
X113404761Y-126071104D02*
X113595237Y-126166342D01*
X113595237Y-126166342D02*
X113690475Y-126356819D01*
X113690475Y-126356819D02*
X113690475Y-127404438D01*
X115404761Y-127309200D02*
X115214285Y-127404438D01*
X115214285Y-127404438D02*
X114833332Y-127404438D01*
X114833332Y-127404438D02*
X114642856Y-127309200D01*
X114642856Y-127309200D02*
X114547618Y-127118723D01*
X114547618Y-127118723D02*
X114547618Y-126356819D01*
X114547618Y-126356819D02*
X114642856Y-126166342D01*
X114642856Y-126166342D02*
X114833332Y-126071104D01*
X114833332Y-126071104D02*
X115214285Y-126071104D01*
X115214285Y-126071104D02*
X115404761Y-126166342D01*
X115404761Y-126166342D02*
X115499999Y-126356819D01*
X115499999Y-126356819D02*
X115499999Y-126547295D01*
X115499999Y-126547295D02*
X114547618Y-126737771D01*
X117214285Y-127404438D02*
X117214285Y-125404438D01*
X117214285Y-127309200D02*
X117023809Y-127404438D01*
X117023809Y-127404438D02*
X116642856Y-127404438D01*
X116642856Y-127404438D02*
X116452380Y-127309200D01*
X116452380Y-127309200D02*
X116357142Y-127213961D01*
X116357142Y-127213961D02*
X116261904Y-127023485D01*
X116261904Y-127023485D02*
X116261904Y-126452057D01*
X116261904Y-126452057D02*
X116357142Y-126261580D01*
X116357142Y-126261580D02*
X116452380Y-126166342D01*
X116452380Y-126166342D02*
X116642856Y-126071104D01*
X116642856Y-126071104D02*
X117023809Y-126071104D01*
X117023809Y-126071104D02*
X117214285Y-126166342D01*
X120357143Y-126356819D02*
X120642857Y-126452057D01*
X120642857Y-126452057D02*
X120738095Y-126547295D01*
X120738095Y-126547295D02*
X120833333Y-126737771D01*
X120833333Y-126737771D02*
X120833333Y-127023485D01*
X120833333Y-127023485D02*
X120738095Y-127213961D01*
X120738095Y-127213961D02*
X120642857Y-127309200D01*
X120642857Y-127309200D02*
X120452381Y-127404438D01*
X120452381Y-127404438D02*
X119690476Y-127404438D01*
X119690476Y-127404438D02*
X119690476Y-125404438D01*
X119690476Y-125404438D02*
X120357143Y-125404438D01*
X120357143Y-125404438D02*
X120547619Y-125499676D01*
X120547619Y-125499676D02*
X120642857Y-125594914D01*
X120642857Y-125594914D02*
X120738095Y-125785390D01*
X120738095Y-125785390D02*
X120738095Y-125975866D01*
X120738095Y-125975866D02*
X120642857Y-126166342D01*
X120642857Y-126166342D02*
X120547619Y-126261580D01*
X120547619Y-126261580D02*
X120357143Y-126356819D01*
X120357143Y-126356819D02*
X119690476Y-126356819D01*
X121500000Y-126071104D02*
X121976190Y-127404438D01*
X122452381Y-126071104D02*
X121976190Y-127404438D01*
X121976190Y-127404438D02*
X121785714Y-127880628D01*
X121785714Y-127880628D02*
X121690476Y-127975866D01*
X121690476Y-127975866D02*
X121500000Y-128071104D01*
X124738096Y-127404438D02*
X124738096Y-125404438D01*
X124738096Y-125404438D02*
X125404763Y-126833009D01*
X125404763Y-126833009D02*
X126071429Y-125404438D01*
X126071429Y-125404438D02*
X126071429Y-127404438D01*
X127880953Y-127404438D02*
X127880953Y-126356819D01*
X127880953Y-126356819D02*
X127785715Y-126166342D01*
X127785715Y-126166342D02*
X127595239Y-126071104D01*
X127595239Y-126071104D02*
X127214286Y-126071104D01*
X127214286Y-126071104D02*
X127023810Y-126166342D01*
X127880953Y-127309200D02*
X127690477Y-127404438D01*
X127690477Y-127404438D02*
X127214286Y-127404438D01*
X127214286Y-127404438D02*
X127023810Y-127309200D01*
X127023810Y-127309200D02*
X126928572Y-127118723D01*
X126928572Y-127118723D02*
X126928572Y-126928247D01*
X126928572Y-126928247D02*
X127023810Y-126737771D01*
X127023810Y-126737771D02*
X127214286Y-126642533D01*
X127214286Y-126642533D02*
X127690477Y-126642533D01*
X127690477Y-126642533D02*
X127880953Y-126547295D01*
X129119048Y-127404438D02*
X128928572Y-127309200D01*
X128928572Y-127309200D02*
X128833334Y-127118723D01*
X128833334Y-127118723D02*
X128833334Y-125404438D01*
X130642858Y-127309200D02*
X130452382Y-127404438D01*
X130452382Y-127404438D02*
X130071429Y-127404438D01*
X130071429Y-127404438D02*
X129880953Y-127309200D01*
X129880953Y-127309200D02*
X129785715Y-127118723D01*
X129785715Y-127118723D02*
X129785715Y-126356819D01*
X129785715Y-126356819D02*
X129880953Y-126166342D01*
X129880953Y-126166342D02*
X130071429Y-126071104D01*
X130071429Y-126071104D02*
X130452382Y-126071104D01*
X130452382Y-126071104D02*
X130642858Y-126166342D01*
X130642858Y-126166342D02*
X130738096Y-126356819D01*
X130738096Y-126356819D02*
X130738096Y-126547295D01*
X130738096Y-126547295D02*
X129785715Y-126737771D01*
X131595239Y-127404438D02*
X131595239Y-125404438D01*
X131785715Y-126642533D02*
X132357144Y-127404438D01*
X132357144Y-126071104D02*
X131595239Y-126833009D01*
X134738097Y-127404438D02*
X134738097Y-125404438D01*
X134738097Y-125404438D02*
X135404764Y-126833009D01*
X135404764Y-126833009D02*
X136071430Y-125404438D01*
X136071430Y-125404438D02*
X136071430Y-127404438D01*
X138547621Y-127404438D02*
X138547621Y-125404438D01*
X139214288Y-126071104D02*
X139976192Y-126071104D01*
X139500002Y-125404438D02*
X139500002Y-127118723D01*
X139500002Y-127118723D02*
X139595240Y-127309200D01*
X139595240Y-127309200D02*
X139785716Y-127404438D01*
X139785716Y-127404438D02*
X139976192Y-127404438D01*
X141500002Y-127404438D02*
X141500002Y-126356819D01*
X141500002Y-126356819D02*
X141404764Y-126166342D01*
X141404764Y-126166342D02*
X141214288Y-126071104D01*
X141214288Y-126071104D02*
X140833335Y-126071104D01*
X140833335Y-126071104D02*
X140642859Y-126166342D01*
X141500002Y-127309200D02*
X141309526Y-127404438D01*
X141309526Y-127404438D02*
X140833335Y-127404438D01*
X140833335Y-127404438D02*
X140642859Y-127309200D01*
X140642859Y-127309200D02*
X140547621Y-127118723D01*
X140547621Y-127118723D02*
X140547621Y-126928247D01*
X140547621Y-126928247D02*
X140642859Y-126737771D01*
X140642859Y-126737771D02*
X140833335Y-126642533D01*
X140833335Y-126642533D02*
X141309526Y-126642533D01*
X141309526Y-126642533D02*
X141500002Y-126547295D01*
X142452383Y-126071104D02*
X142452383Y-127404438D01*
X142452383Y-126261580D02*
X142547621Y-126166342D01*
X142547621Y-126166342D02*
X142738097Y-126071104D01*
X142738097Y-126071104D02*
X143023812Y-126071104D01*
X143023812Y-126071104D02*
X143214288Y-126166342D01*
X143214288Y-126166342D02*
X143309526Y-126356819D01*
X143309526Y-126356819D02*
X143309526Y-127404438D01*
X144261907Y-127404438D02*
X144261907Y-126071104D01*
X144261907Y-125404438D02*
X144166669Y-125499676D01*
X144166669Y-125499676D02*
X144261907Y-125594914D01*
X144261907Y-125594914D02*
X144357145Y-125499676D01*
X144357145Y-125499676D02*
X144261907Y-125404438D01*
X144261907Y-125404438D02*
X144261907Y-125594914D01*
D11*
X163151905Y-104444819D02*
X163151905Y-103444819D01*
X163151905Y-103444819D02*
X163390000Y-103444819D01*
X163390000Y-103444819D02*
X163532857Y-103492438D01*
X163532857Y-103492438D02*
X163628095Y-103587676D01*
X163628095Y-103587676D02*
X163675714Y-103682914D01*
X163675714Y-103682914D02*
X163723333Y-103873390D01*
X163723333Y-103873390D02*
X163723333Y-104016247D01*
X163723333Y-104016247D02*
X163675714Y-104206723D01*
X163675714Y-104206723D02*
X163628095Y-104301961D01*
X163628095Y-104301961D02*
X163532857Y-104397200D01*
X163532857Y-104397200D02*
X163390000Y-104444819D01*
X163390000Y-104444819D02*
X163151905Y-104444819D01*
X164675714Y-104444819D02*
X164104286Y-104444819D01*
X164390000Y-104444819D02*
X164390000Y-103444819D01*
X164390000Y-103444819D02*
X164294762Y-103587676D01*
X164294762Y-103587676D02*
X164199524Y-103682914D01*
X164199524Y-103682914D02*
X164104286Y-103730533D01*
X159818095Y-104764819D02*
X159818095Y-103764819D01*
X160389523Y-104764819D02*
X159960952Y-104193390D01*
X160389523Y-103764819D02*
X159818095Y-104336247D01*
X121806666Y-108741009D02*
X121949523Y-108788628D01*
X121949523Y-108788628D02*
X121997142Y-108836247D01*
X121997142Y-108836247D02*
X122044761Y-108931485D01*
X122044761Y-108931485D02*
X122044761Y-109074342D01*
X122044761Y-109074342D02*
X121997142Y-109169580D01*
X121997142Y-109169580D02*
X121949523Y-109217200D01*
X121949523Y-109217200D02*
X121854285Y-109264819D01*
X121854285Y-109264819D02*
X121473333Y-109264819D01*
X121473333Y-109264819D02*
X121473333Y-108264819D01*
X121473333Y-108264819D02*
X121806666Y-108264819D01*
X121806666Y-108264819D02*
X121901904Y-108312438D01*
X121901904Y-108312438D02*
X121949523Y-108360057D01*
X121949523Y-108360057D02*
X121997142Y-108455295D01*
X121997142Y-108455295D02*
X121997142Y-108550533D01*
X121997142Y-108550533D02*
X121949523Y-108645771D01*
X121949523Y-108645771D02*
X121901904Y-108693390D01*
X121901904Y-108693390D02*
X121806666Y-108741009D01*
X121806666Y-108741009D02*
X121473333Y-108741009D01*
X122901904Y-108598152D02*
X122901904Y-109264819D01*
X122473333Y-108598152D02*
X122473333Y-109121961D01*
X122473333Y-109121961D02*
X122520952Y-109217200D01*
X122520952Y-109217200D02*
X122616190Y-109264819D01*
X122616190Y-109264819D02*
X122759047Y-109264819D01*
X122759047Y-109264819D02*
X122854285Y-109217200D01*
X122854285Y-109217200D02*
X122901904Y-109169580D01*
X123235238Y-108598152D02*
X123616190Y-108598152D01*
X123378095Y-108264819D02*
X123378095Y-109121961D01*
X123378095Y-109121961D02*
X123425714Y-109217200D01*
X123425714Y-109217200D02*
X123520952Y-109264819D01*
X123520952Y-109264819D02*
X123616190Y-109264819D01*
X123806667Y-108598152D02*
X124187619Y-108598152D01*
X123949524Y-108264819D02*
X123949524Y-109121961D01*
X123949524Y-109121961D02*
X123997143Y-109217200D01*
X123997143Y-109217200D02*
X124092381Y-109264819D01*
X124092381Y-109264819D02*
X124187619Y-109264819D01*
X124663810Y-109264819D02*
X124568572Y-109217200D01*
X124568572Y-109217200D02*
X124520953Y-109169580D01*
X124520953Y-109169580D02*
X124473334Y-109074342D01*
X124473334Y-109074342D02*
X124473334Y-108788628D01*
X124473334Y-108788628D02*
X124520953Y-108693390D01*
X124520953Y-108693390D02*
X124568572Y-108645771D01*
X124568572Y-108645771D02*
X124663810Y-108598152D01*
X124663810Y-108598152D02*
X124806667Y-108598152D01*
X124806667Y-108598152D02*
X124901905Y-108645771D01*
X124901905Y-108645771D02*
X124949524Y-108693390D01*
X124949524Y-108693390D02*
X124997143Y-108788628D01*
X124997143Y-108788628D02*
X124997143Y-109074342D01*
X124997143Y-109074342D02*
X124949524Y-109169580D01*
X124949524Y-109169580D02*
X124901905Y-109217200D01*
X124901905Y-109217200D02*
X124806667Y-109264819D01*
X124806667Y-109264819D02*
X124663810Y-109264819D01*
X125425715Y-108598152D02*
X125425715Y-109264819D01*
X125425715Y-108693390D02*
X125473334Y-108645771D01*
X125473334Y-108645771D02*
X125568572Y-108598152D01*
X125568572Y-108598152D02*
X125711429Y-108598152D01*
X125711429Y-108598152D02*
X125806667Y-108645771D01*
X125806667Y-108645771D02*
X125854286Y-108741009D01*
X125854286Y-108741009D02*
X125854286Y-109264819D01*
X126854286Y-109264819D02*
X126282858Y-109264819D01*
X126568572Y-109264819D02*
X126568572Y-108264819D01*
X126568572Y-108264819D02*
X126473334Y-108407676D01*
X126473334Y-108407676D02*
X126378096Y-108502914D01*
X126378096Y-108502914D02*
X126282858Y-108550533D01*
X133187619Y-109264819D02*
X133187619Y-108264819D01*
X133187619Y-108264819D02*
X133568571Y-108264819D01*
X133568571Y-108264819D02*
X133663809Y-108312438D01*
X133663809Y-108312438D02*
X133711428Y-108360057D01*
X133711428Y-108360057D02*
X133759047Y-108455295D01*
X133759047Y-108455295D02*
X133759047Y-108598152D01*
X133759047Y-108598152D02*
X133711428Y-108693390D01*
X133711428Y-108693390D02*
X133663809Y-108741009D01*
X133663809Y-108741009D02*
X133568571Y-108788628D01*
X133568571Y-108788628D02*
X133187619Y-108788628D01*
X134330476Y-109264819D02*
X134235238Y-109217200D01*
X134235238Y-109217200D02*
X134187619Y-109169580D01*
X134187619Y-109169580D02*
X134140000Y-109074342D01*
X134140000Y-109074342D02*
X134140000Y-108788628D01*
X134140000Y-108788628D02*
X134187619Y-108693390D01*
X134187619Y-108693390D02*
X134235238Y-108645771D01*
X134235238Y-108645771D02*
X134330476Y-108598152D01*
X134330476Y-108598152D02*
X134473333Y-108598152D01*
X134473333Y-108598152D02*
X134568571Y-108645771D01*
X134568571Y-108645771D02*
X134616190Y-108693390D01*
X134616190Y-108693390D02*
X134663809Y-108788628D01*
X134663809Y-108788628D02*
X134663809Y-109074342D01*
X134663809Y-109074342D02*
X134616190Y-109169580D01*
X134616190Y-109169580D02*
X134568571Y-109217200D01*
X134568571Y-109217200D02*
X134473333Y-109264819D01*
X134473333Y-109264819D02*
X134330476Y-109264819D01*
X134997143Y-108598152D02*
X135187619Y-109264819D01*
X135187619Y-109264819D02*
X135378095Y-108788628D01*
X135378095Y-108788628D02*
X135568571Y-109264819D01*
X135568571Y-109264819D02*
X135759047Y-108598152D01*
X136520952Y-109217200D02*
X136425714Y-109264819D01*
X136425714Y-109264819D02*
X136235238Y-109264819D01*
X136235238Y-109264819D02*
X136140000Y-109217200D01*
X136140000Y-109217200D02*
X136092381Y-109121961D01*
X136092381Y-109121961D02*
X136092381Y-108741009D01*
X136092381Y-108741009D02*
X136140000Y-108645771D01*
X136140000Y-108645771D02*
X136235238Y-108598152D01*
X136235238Y-108598152D02*
X136425714Y-108598152D01*
X136425714Y-108598152D02*
X136520952Y-108645771D01*
X136520952Y-108645771D02*
X136568571Y-108741009D01*
X136568571Y-108741009D02*
X136568571Y-108836247D01*
X136568571Y-108836247D02*
X136092381Y-108931485D01*
X136997143Y-109264819D02*
X136997143Y-108598152D01*
X136997143Y-108788628D02*
X137044762Y-108693390D01*
X137044762Y-108693390D02*
X137092381Y-108645771D01*
X137092381Y-108645771D02*
X137187619Y-108598152D01*
X137187619Y-108598152D02*
X137282857Y-108598152D01*
X138140000Y-109264819D02*
X137568572Y-109264819D01*
X137854286Y-109264819D02*
X137854286Y-108264819D01*
X137854286Y-108264819D02*
X137759048Y-108407676D01*
X137759048Y-108407676D02*
X137663810Y-108502914D01*
X137663810Y-108502914D02*
X137568572Y-108550533D01*
X136618095Y-60054819D02*
X136618095Y-60864342D01*
X136618095Y-60864342D02*
X136665714Y-60959580D01*
X136665714Y-60959580D02*
X136713333Y-61007200D01*
X136713333Y-61007200D02*
X136808571Y-61054819D01*
X136808571Y-61054819D02*
X136999047Y-61054819D01*
X136999047Y-61054819D02*
X137094285Y-61007200D01*
X137094285Y-61007200D02*
X137141904Y-60959580D01*
X137141904Y-60959580D02*
X137189523Y-60864342D01*
X137189523Y-60864342D02*
X137189523Y-60054819D01*
X137618095Y-61007200D02*
X137760952Y-61054819D01*
X137760952Y-61054819D02*
X137999047Y-61054819D01*
X137999047Y-61054819D02*
X138094285Y-61007200D01*
X138094285Y-61007200D02*
X138141904Y-60959580D01*
X138141904Y-60959580D02*
X138189523Y-60864342D01*
X138189523Y-60864342D02*
X138189523Y-60769104D01*
X138189523Y-60769104D02*
X138141904Y-60673866D01*
X138141904Y-60673866D02*
X138094285Y-60626247D01*
X138094285Y-60626247D02*
X137999047Y-60578628D01*
X137999047Y-60578628D02*
X137808571Y-60531009D01*
X137808571Y-60531009D02*
X137713333Y-60483390D01*
X137713333Y-60483390D02*
X137665714Y-60435771D01*
X137665714Y-60435771D02*
X137618095Y-60340533D01*
X137618095Y-60340533D02*
X137618095Y-60245295D01*
X137618095Y-60245295D02*
X137665714Y-60150057D01*
X137665714Y-60150057D02*
X137713333Y-60102438D01*
X137713333Y-60102438D02*
X137808571Y-60054819D01*
X137808571Y-60054819D02*
X138046666Y-60054819D01*
X138046666Y-60054819D02*
X138189523Y-60102438D01*
X138951428Y-60531009D02*
X139094285Y-60578628D01*
X139094285Y-60578628D02*
X139141904Y-60626247D01*
X139141904Y-60626247D02*
X139189523Y-60721485D01*
X139189523Y-60721485D02*
X139189523Y-60864342D01*
X139189523Y-60864342D02*
X139141904Y-60959580D01*
X139141904Y-60959580D02*
X139094285Y-61007200D01*
X139094285Y-61007200D02*
X138999047Y-61054819D01*
X138999047Y-61054819D02*
X138618095Y-61054819D01*
X138618095Y-61054819D02*
X138618095Y-60054819D01*
X138618095Y-60054819D02*
X138951428Y-60054819D01*
X138951428Y-60054819D02*
X139046666Y-60102438D01*
X139046666Y-60102438D02*
X139094285Y-60150057D01*
X139094285Y-60150057D02*
X139141904Y-60245295D01*
X139141904Y-60245295D02*
X139141904Y-60340533D01*
X139141904Y-60340533D02*
X139094285Y-60435771D01*
X139094285Y-60435771D02*
X139046666Y-60483390D01*
X139046666Y-60483390D02*
X138951428Y-60531009D01*
X138951428Y-60531009D02*
X138618095Y-60531009D01*
X123723333Y-107819580D02*
X123675714Y-107867200D01*
X123675714Y-107867200D02*
X123532857Y-107914819D01*
X123532857Y-107914819D02*
X123437619Y-107914819D01*
X123437619Y-107914819D02*
X123294762Y-107867200D01*
X123294762Y-107867200D02*
X123199524Y-107771961D01*
X123199524Y-107771961D02*
X123151905Y-107676723D01*
X123151905Y-107676723D02*
X123104286Y-107486247D01*
X123104286Y-107486247D02*
X123104286Y-107343390D01*
X123104286Y-107343390D02*
X123151905Y-107152914D01*
X123151905Y-107152914D02*
X123199524Y-107057676D01*
X123199524Y-107057676D02*
X123294762Y-106962438D01*
X123294762Y-106962438D02*
X123437619Y-106914819D01*
X123437619Y-106914819D02*
X123532857Y-106914819D01*
X123532857Y-106914819D02*
X123675714Y-106962438D01*
X123675714Y-106962438D02*
X123723333Y-107010057D01*
X124675714Y-107914819D02*
X124104286Y-107914819D01*
X124390000Y-107914819D02*
X124390000Y-106914819D01*
X124390000Y-106914819D02*
X124294762Y-107057676D01*
X124294762Y-107057676D02*
X124199524Y-107152914D01*
X124199524Y-107152914D02*
X124104286Y-107200533D01*
X144551902Y-109239018D02*
X144551902Y-108239018D01*
X144551902Y-108239018D02*
X144932854Y-108239018D01*
X144932854Y-108239018D02*
X145028092Y-108286637D01*
X145028092Y-108286637D02*
X145075711Y-108334256D01*
X145075711Y-108334256D02*
X145123330Y-108429494D01*
X145123330Y-108429494D02*
X145123330Y-108572351D01*
X145123330Y-108572351D02*
X145075711Y-108667589D01*
X145075711Y-108667589D02*
X145028092Y-108715208D01*
X145028092Y-108715208D02*
X144932854Y-108762827D01*
X144932854Y-108762827D02*
X144551902Y-108762827D01*
X145694759Y-109239018D02*
X145599521Y-109191399D01*
X145599521Y-109191399D02*
X145551902Y-109143779D01*
X145551902Y-109143779D02*
X145504283Y-109048541D01*
X145504283Y-109048541D02*
X145504283Y-108762827D01*
X145504283Y-108762827D02*
X145551902Y-108667589D01*
X145551902Y-108667589D02*
X145599521Y-108619970D01*
X145599521Y-108619970D02*
X145694759Y-108572351D01*
X145694759Y-108572351D02*
X145837616Y-108572351D01*
X145837616Y-108572351D02*
X145932854Y-108619970D01*
X145932854Y-108619970D02*
X145980473Y-108667589D01*
X145980473Y-108667589D02*
X146028092Y-108762827D01*
X146028092Y-108762827D02*
X146028092Y-109048541D01*
X146028092Y-109048541D02*
X145980473Y-109143779D01*
X145980473Y-109143779D02*
X145932854Y-109191399D01*
X145932854Y-109191399D02*
X145837616Y-109239018D01*
X145837616Y-109239018D02*
X145694759Y-109239018D01*
X146361426Y-108572351D02*
X146551902Y-109239018D01*
X146551902Y-109239018D02*
X146742378Y-108762827D01*
X146742378Y-108762827D02*
X146932854Y-109239018D01*
X146932854Y-109239018D02*
X147123330Y-108572351D01*
X147885235Y-109191399D02*
X147789997Y-109239018D01*
X147789997Y-109239018D02*
X147599521Y-109239018D01*
X147599521Y-109239018D02*
X147504283Y-109191399D01*
X147504283Y-109191399D02*
X147456664Y-109096160D01*
X147456664Y-109096160D02*
X147456664Y-108715208D01*
X147456664Y-108715208D02*
X147504283Y-108619970D01*
X147504283Y-108619970D02*
X147599521Y-108572351D01*
X147599521Y-108572351D02*
X147789997Y-108572351D01*
X147789997Y-108572351D02*
X147885235Y-108619970D01*
X147885235Y-108619970D02*
X147932854Y-108715208D01*
X147932854Y-108715208D02*
X147932854Y-108810446D01*
X147932854Y-108810446D02*
X147456664Y-108905684D01*
X148361426Y-109239018D02*
X148361426Y-108572351D01*
X148361426Y-108762827D02*
X148409045Y-108667589D01*
X148409045Y-108667589D02*
X148456664Y-108619970D01*
X148456664Y-108619970D02*
X148551902Y-108572351D01*
X148551902Y-108572351D02*
X148647140Y-108572351D01*
X148932855Y-108334256D02*
X148980474Y-108286637D01*
X148980474Y-108286637D02*
X149075712Y-108239018D01*
X149075712Y-108239018D02*
X149313807Y-108239018D01*
X149313807Y-108239018D02*
X149409045Y-108286637D01*
X149409045Y-108286637D02*
X149456664Y-108334256D01*
X149456664Y-108334256D02*
X149504283Y-108429494D01*
X149504283Y-108429494D02*
X149504283Y-108524732D01*
X149504283Y-108524732D02*
X149456664Y-108667589D01*
X149456664Y-108667589D02*
X148885236Y-109239018D01*
X148885236Y-109239018D02*
X149504283Y-109239018D01*
X103787143Y-111795376D02*
X104263333Y-111795376D01*
X103691905Y-112081091D02*
X104025238Y-111081091D01*
X104025238Y-111081091D02*
X104358571Y-112081091D01*
X104691905Y-112081091D02*
X104691905Y-111081091D01*
X104691905Y-111081091D02*
X105263333Y-112081091D01*
X105263333Y-112081091D02*
X105263333Y-111081091D01*
X105596667Y-111081091D02*
X106168095Y-111081091D01*
X105882381Y-112081091D02*
X105882381Y-111081091D01*
X171366467Y-111341177D02*
X170579065Y-111341177D01*
X171366467Y-110891233D02*
X170916523Y-111228691D01*
X170579065Y-110891233D02*
X171029009Y-111341177D01*
X171366467Y-110141326D02*
X171366467Y-110591270D01*
X171366467Y-110366298D02*
X170579065Y-110366298D01*
X170579065Y-110366298D02*
X170691551Y-110441289D01*
X170691551Y-110441289D02*
X170766542Y-110516280D01*
X170766542Y-110516280D02*
X170804037Y-110591270D01*
X154844819Y-80121904D02*
X155654342Y-80121904D01*
X155654342Y-80121904D02*
X155749580Y-80074285D01*
X155749580Y-80074285D02*
X155797200Y-80026666D01*
X155797200Y-80026666D02*
X155844819Y-79931428D01*
X155844819Y-79931428D02*
X155844819Y-79740952D01*
X155844819Y-79740952D02*
X155797200Y-79645714D01*
X155797200Y-79645714D02*
X155749580Y-79598095D01*
X155749580Y-79598095D02*
X155654342Y-79550476D01*
X155654342Y-79550476D02*
X154844819Y-79550476D01*
X155844819Y-78550476D02*
X155844819Y-79121904D01*
X155844819Y-78836190D02*
X154844819Y-78836190D01*
X154844819Y-78836190D02*
X154987676Y-78931428D01*
X154987676Y-78931428D02*
X155082914Y-79026666D01*
X155082914Y-79026666D02*
X155130533Y-79121904D01*
X167344819Y-94824284D02*
X168344819Y-94490951D01*
X168344819Y-94490951D02*
X167344819Y-94157618D01*
X168344819Y-93824284D02*
X167344819Y-93824284D01*
X168344819Y-93348094D02*
X167344819Y-93348094D01*
X167344819Y-93348094D02*
X168344819Y-92776666D01*
X168344819Y-92776666D02*
X167344819Y-92776666D01*
X167963866Y-92300475D02*
X167963866Y-91538571D01*
X168344819Y-91919523D02*
X167582914Y-91919523D01*
X167344819Y-65490951D02*
X168344819Y-65157618D01*
X168344819Y-65157618D02*
X167344819Y-64824285D01*
X167344819Y-64300475D02*
X167344819Y-64109999D01*
X167344819Y-64109999D02*
X167392438Y-64014761D01*
X167392438Y-64014761D02*
X167487676Y-63919523D01*
X167487676Y-63919523D02*
X167678152Y-63871904D01*
X167678152Y-63871904D02*
X168011485Y-63871904D01*
X168011485Y-63871904D02*
X168201961Y-63919523D01*
X168201961Y-63919523D02*
X168297200Y-64014761D01*
X168297200Y-64014761D02*
X168344819Y-64109999D01*
X168344819Y-64109999D02*
X168344819Y-64300475D01*
X168344819Y-64300475D02*
X168297200Y-64395713D01*
X168297200Y-64395713D02*
X168201961Y-64490951D01*
X168201961Y-64490951D02*
X168011485Y-64538570D01*
X168011485Y-64538570D02*
X167678152Y-64538570D01*
X167678152Y-64538570D02*
X167487676Y-64490951D01*
X167487676Y-64490951D02*
X167392438Y-64395713D01*
X167392438Y-64395713D02*
X167344819Y-64300475D01*
X167344819Y-63443332D02*
X168154342Y-63443332D01*
X168154342Y-63443332D02*
X168249580Y-63395713D01*
X168249580Y-63395713D02*
X168297200Y-63348094D01*
X168297200Y-63348094D02*
X168344819Y-63252856D01*
X168344819Y-63252856D02*
X168344819Y-63062380D01*
X168344819Y-63062380D02*
X168297200Y-62967142D01*
X168297200Y-62967142D02*
X168249580Y-62919523D01*
X168249580Y-62919523D02*
X168154342Y-62871904D01*
X168154342Y-62871904D02*
X167344819Y-62871904D01*
X167344819Y-62538570D02*
X167344819Y-61967142D01*
X168344819Y-62252856D02*
X167344819Y-62252856D01*
X167963866Y-61633808D02*
X167963866Y-60871904D01*
X168344819Y-61252856D02*
X167582914Y-61252856D01*
X154344819Y-94824284D02*
X155344819Y-94490951D01*
X155344819Y-94490951D02*
X154344819Y-94157618D01*
X155344819Y-93824284D02*
X154344819Y-93824284D01*
X155344819Y-93348094D02*
X154344819Y-93348094D01*
X154344819Y-93348094D02*
X155344819Y-92776666D01*
X155344819Y-92776666D02*
X154344819Y-92776666D01*
X154963866Y-92300475D02*
X154963866Y-91538571D01*
X154344819Y-65490951D02*
X155344819Y-65157618D01*
X155344819Y-65157618D02*
X154344819Y-64824285D01*
X154344819Y-64300475D02*
X154344819Y-64109999D01*
X154344819Y-64109999D02*
X154392438Y-64014761D01*
X154392438Y-64014761D02*
X154487676Y-63919523D01*
X154487676Y-63919523D02*
X154678152Y-63871904D01*
X154678152Y-63871904D02*
X155011485Y-63871904D01*
X155011485Y-63871904D02*
X155201961Y-63919523D01*
X155201961Y-63919523D02*
X155297200Y-64014761D01*
X155297200Y-64014761D02*
X155344819Y-64109999D01*
X155344819Y-64109999D02*
X155344819Y-64300475D01*
X155344819Y-64300475D02*
X155297200Y-64395713D01*
X155297200Y-64395713D02*
X155201961Y-64490951D01*
X155201961Y-64490951D02*
X155011485Y-64538570D01*
X155011485Y-64538570D02*
X154678152Y-64538570D01*
X154678152Y-64538570D02*
X154487676Y-64490951D01*
X154487676Y-64490951D02*
X154392438Y-64395713D01*
X154392438Y-64395713D02*
X154344819Y-64300475D01*
X154344819Y-63443332D02*
X155154342Y-63443332D01*
X155154342Y-63443332D02*
X155249580Y-63395713D01*
X155249580Y-63395713D02*
X155297200Y-63348094D01*
X155297200Y-63348094D02*
X155344819Y-63252856D01*
X155344819Y-63252856D02*
X155344819Y-63062380D01*
X155344819Y-63062380D02*
X155297200Y-62967142D01*
X155297200Y-62967142D02*
X155249580Y-62919523D01*
X155249580Y-62919523D02*
X155154342Y-62871904D01*
X155154342Y-62871904D02*
X154344819Y-62871904D01*
X154344819Y-62538570D02*
X154344819Y-61967142D01*
X155344819Y-62252856D02*
X154344819Y-62252856D01*
X154963866Y-61633808D02*
X154963866Y-60871904D01*
D12*
%TO.C,D1*%
X161120000Y-106110000D02*
X161770000Y-106110000D01*
X161770000Y-104990000D02*
X161770000Y-107230000D01*
X161770000Y-107230000D02*
X166010000Y-107230000D01*
X162370000Y-104990000D02*
X162370000Y-107230000D01*
X162490000Y-104990000D02*
X162490000Y-107230000D01*
X162610000Y-104990000D02*
X162610000Y-107230000D01*
X166010000Y-104990000D02*
X161770000Y-104990000D01*
X166010000Y-107230000D02*
X166010000Y-104990000D01*
X166660000Y-106110000D02*
X166010000Y-106110000D01*
%TO.C,Button1*%
X119980000Y-111720000D02*
X119980000Y-114220000D01*
X119980000Y-114220000D02*
X122480000Y-114220000D01*
X120280000Y-109900000D02*
X120280000Y-113920000D01*
X120280000Y-111610000D02*
X120780000Y-111610000D01*
X120280000Y-112420000D02*
X121280000Y-112420000D01*
X120280000Y-113920000D02*
X128000000Y-113920000D01*
X120780000Y-110400000D02*
X127500000Y-110400000D01*
X120780000Y-111610000D02*
X120780000Y-110400000D01*
X121280000Y-112420000D02*
X121280000Y-113920000D01*
X127000000Y-112420000D02*
X127000000Y-113920000D01*
X127500000Y-110400000D02*
X127500000Y-111610000D01*
X127500000Y-111610000D02*
X128000000Y-111610000D01*
X128000000Y-109900000D02*
X120280000Y-109900000D01*
X128000000Y-112420000D02*
X127000000Y-112420000D01*
X128000000Y-113920000D02*
X128000000Y-109900000D01*
%TO.C,Power1*%
X131480000Y-111720000D02*
X131480000Y-114220000D01*
X131480000Y-114220000D02*
X133980000Y-114220000D01*
X131780000Y-109900000D02*
X131780000Y-113920000D01*
X131780000Y-111610000D02*
X132280000Y-111610000D01*
X131780000Y-112420000D02*
X132780000Y-112420000D01*
X131780000Y-113920000D02*
X139500000Y-113920000D01*
X132280000Y-110400000D02*
X139000000Y-110400000D01*
X132280000Y-111610000D02*
X132280000Y-110400000D01*
X132780000Y-112420000D02*
X132780000Y-113920000D01*
X138500000Y-112420000D02*
X138500000Y-113920000D01*
X139000000Y-110400000D02*
X139000000Y-111610000D01*
X139000000Y-111610000D02*
X139500000Y-111610000D01*
X139500000Y-109900000D02*
X131780000Y-109900000D01*
X139500000Y-112420000D02*
X138500000Y-112420000D01*
X139500000Y-113920000D02*
X139500000Y-109900000D01*
%TO.C,A1*%
X128860000Y-56660000D02*
X128860000Y-100100000D01*
X128860000Y-56660000D02*
X133940000Y-56660000D01*
X128860000Y-100100000D02*
X146900000Y-100100000D01*
X131530000Y-59330000D02*
X128860000Y-59330000D01*
X131530000Y-97430000D02*
X128860000Y-97430000D01*
X131530000Y-97430000D02*
X131530000Y-59330000D01*
X133940000Y-54120000D02*
X141820000Y-54120000D01*
X133940000Y-64540000D02*
X133940000Y-54120000D01*
X141820000Y-54120000D02*
X141820000Y-64540000D01*
X141820000Y-64540000D02*
X133940000Y-64540000D01*
X144230000Y-59330000D02*
X146900000Y-59330000D01*
X144230000Y-94890000D02*
X144230000Y-59330000D01*
X144230000Y-94890000D02*
X144230000Y-97430000D01*
X144230000Y-94890000D02*
X146900000Y-94890000D01*
X144230000Y-97430000D02*
X146900000Y-97430000D01*
X146900000Y-56660000D02*
X141820000Y-56660000D01*
X146900000Y-94890000D02*
X146900000Y-56660000D01*
X146900000Y-100100000D02*
X146900000Y-97430000D01*
%TO.C,C1*%
X121220000Y-103555000D02*
X121220000Y-102889000D01*
X121220000Y-106331000D02*
X121220000Y-105665000D01*
X126560000Y-102889000D02*
X121220000Y-102889000D01*
X126560000Y-103555000D02*
X126560000Y-102889000D01*
X126560000Y-106331000D02*
X121220000Y-106331000D01*
X126560000Y-106331000D02*
X126560000Y-105665000D01*
%TO.C,Power2*%
X142844283Y-111694199D02*
X142844283Y-114194199D01*
X142844283Y-114194199D02*
X145344283Y-114194199D01*
X143144283Y-109874199D02*
X143144283Y-113894199D01*
X143144283Y-111584199D02*
X143644283Y-111584199D01*
X143144283Y-112394199D02*
X144144283Y-112394199D01*
X143144283Y-113894199D02*
X150864283Y-113894199D01*
X143644283Y-110374199D02*
X150364283Y-110374199D01*
X143644283Y-111584199D02*
X143644283Y-110374199D01*
X144144283Y-112394199D02*
X144144283Y-113894199D01*
X149864283Y-112394199D02*
X149864283Y-113894199D01*
X150364283Y-110374199D02*
X150364283Y-111584199D01*
X150364283Y-111584199D02*
X150864283Y-111584199D01*
X150864283Y-109874199D02*
X143144283Y-109874199D01*
X150864283Y-112394199D02*
X149864283Y-112394199D01*
X150864283Y-113894199D02*
X150864283Y-109874199D01*
%TO.C,ANT*%
X100830000Y-108170000D02*
X100830000Y-99970000D01*
X108530000Y-104070000D02*
X109030000Y-104570000D01*
X109030000Y-99970000D02*
X100830000Y-99970000D01*
X109030000Y-103570000D02*
X108530000Y-104070000D01*
X109030000Y-108170000D02*
X100830000Y-108170000D01*
X109030000Y-108170000D02*
X109030000Y-99970000D01*
D13*
%TO.C,K1*%
X158140000Y-109425000D02*
X158140000Y-124795000D01*
X158140000Y-124795000D02*
X168640000Y-124795000D01*
X168640000Y-109425000D02*
X158140000Y-109425000D01*
X168640000Y-124795000D02*
X168640000Y-109425000D01*
D11*
%TO.C,U1*%
X152890000Y-62110000D02*
X152890000Y-93110000D01*
X155390000Y-95610000D02*
X167390000Y-95610000D01*
X165390000Y-74610000D02*
X166890000Y-71110000D01*
X166890000Y-71110000D02*
X168390000Y-74610000D01*
X167390000Y-59610000D02*
X155390000Y-59610000D01*
X168390000Y-71110000D02*
X165390000Y-71110000D01*
X168390000Y-74610000D02*
X165390000Y-74610000D01*
X169890000Y-93110000D02*
X169890000Y-62110000D01*
X152890000Y-62110000D02*
G75*
G02*
X155390000Y-59610000I2500000J0D01*
G01*
X155390000Y-95610000D02*
G75*
G02*
X152890000Y-93110000I0J2500000D01*
G01*
X167390000Y-59610000D02*
G75*
G02*
X169890000Y-62110000I0J-2500000D01*
G01*
X169890000Y-93110000D02*
G75*
G02*
X167390000Y-95610000I-2500000J0D01*
G01*
%TO.C,SIM800LV2*%
D14*
X99890000Y-56610000D02*
X126890000Y-56610000D01*
X126890000Y-96610000D01*
X99890000Y-96610000D01*
X99890000Y-56610000D01*
X104390000Y-59110000D02*
G75*
G02*
X100390000Y-59110000I-2000000J0D01*
G01*
X100390000Y-59110000D02*
G75*
G02*
X104390000Y-59110000I2000000J0D01*
G01*
X104410000Y-94135000D02*
G75*
G02*
X100410000Y-94135000I-2000000J0D01*
G01*
X100410000Y-94135000D02*
G75*
G02*
X104410000Y-94135000I2000000J0D01*
G01*
X125890000Y-94110000D02*
G75*
G02*
X121890000Y-94110000I-2000000J0D01*
G01*
X121890000Y-94110000D02*
G75*
G02*
X125890000Y-94110000I2000000J0D01*
G01*
%TD*%
D15*
X96892500Y-52063500D02*
X174892500Y-52063500D01*
X174892500Y-130063500D01*
X96892500Y-130063500D01*
X96892500Y-52063500D01*
X100892500Y-54563500D02*
G75*
G02*
X97892500Y-54563500I-1500000J0D01*
G01*
X97892500Y-54563500D02*
G75*
G02*
X100892500Y-54563500I1500000J0D01*
G01*
X173892500Y-127563500D02*
G75*
G02*
X170892500Y-127563500I-1500000J0D01*
G01*
X170892500Y-127563500D02*
G75*
G02*
X173892500Y-127563500I1500000J0D01*
G01*
X173892500Y-54563500D02*
G75*
G02*
X170892500Y-54563500I-1500000J0D01*
G01*
X170892500Y-54563500D02*
G75*
G02*
X173892500Y-54563500I1500000J0D01*
G01*
X100892500Y-127563500D02*
G75*
G02*
X97892500Y-127563500I-1500000J0D01*
G01*
X97892500Y-127563500D02*
G75*
G02*
X100892500Y-127563500I1500000J0D01*
G01*
M02*
