M48
; DRILL file {KiCad 8.0.6} date 2025-01-03T17:40:26+0200
; FORMAT={-:-/ absolute / metric / decimal}
; #@! TF.CreationDate,2025-01-03T17:40:26+02:00
; #@! TF.GenerationSoftware,Kicad,Pcbnew,8.0.6
; #@! TF.FileFunction,Plated,1,2,PTH
FMAT,2
METRIC
; #@! TA.AperFunction,Plated,PTH,ComponentDrill
T1C0.700
; #@! TA.AperFunction,Plated,PTH,ComponentDrill
T2C0.800
; #@! TA.AperFunction,Plated,PTH,ComponentDrill
T3C1.000
; #@! TA.AperFunction,Plated,PTH,ComponentDrill
T4C1.250
; #@! TA.AperFunction,Plated,PTH,ComponentDrill
T5C1.500
; #@! TA.AperFunction,Plated,PTH,ComponentDrill
T6C1.700
%
G90
G05
T1
X159.58Y-110.825
X159.58Y-113.365
X159.58Y-123.525
X167.2Y-110.825
X167.2Y-113.365
X167.2Y-123.525
T2
X121.39Y-104.61
X126.39Y-104.61
X160.08Y-106.11
X167.7Y-106.11
T3
X107.81Y-58.61
X110.35Y-58.61
X112.89Y-58.61
X115.43Y-58.61
X117.97Y-58.61
X120.51Y-58.61
X122.89Y-111.61
X123.05Y-58.61
X125.39Y-111.61
X130.26Y-60.6
X130.26Y-63.14
X130.26Y-65.68
X130.26Y-68.22
X130.26Y-70.76
X130.26Y-73.3
X130.26Y-75.84
X130.26Y-78.38
X130.26Y-80.92
X130.26Y-83.46
X130.26Y-86.0
X130.26Y-88.54
X130.26Y-91.08
X130.26Y-93.62
X130.26Y-96.16
X134.39Y-111.61
X136.89Y-111.61
X145.5Y-60.6
X145.5Y-63.14
X145.5Y-65.68
X145.5Y-68.22
X145.5Y-70.76
X145.5Y-73.3
X145.5Y-75.84
X145.5Y-78.38
X145.5Y-80.92
X145.5Y-83.46
X145.5Y-86.0
X145.5Y-88.54
X145.5Y-91.08
X145.5Y-93.62
X145.5Y-96.16
X145.754Y-111.584
X148.254Y-111.584
T4
X158.14Y-62.11
X158.14Y-93.11
X164.59Y-93.11
X164.64Y-62.11
T5
X104.93Y-104.07
T6
X102.39Y-101.53
X102.39Y-106.61
X107.47Y-101.53
X107.47Y-106.61
M30
