<svg id="svgcontent" width="300mm" height="210mm" viewBox="0 0 3000 2100" xmlns="http://www.w3.org/2000/svg" xmlns:svg="http://www.w3.org/2000/svg" xmlns:xlink="http://www.w3.org/1999/xlink" data-top="-56" data-left="-671" data-zoom="0.401" data-workarea="fbm1" data-en_af="false" data-en_diode="false" data-rotary_mode="null" data-engrave_dpi="medium" style="will-change: scroll-position, contents, transform;">
 <defs>
  <symbol data-image-symbol="svg_1_image" data-bbox="{&quot;x&quot;:0,&quot;y&quot;:0,&quot;width&quot;:829.44,&quot;height&quot;:438.75909}" id="svg_1" overflow="visible">
   <path id="svg_5" d="m564.72,224.6613c0,-39.7825 -15.8035,-77.9355 -43.934,-106.066c-28.1304,-28.1305 -66.2835,-43.934 -106.066,-43.934c-39.7825,0 -77.9356,15.8035 -106.066,43.934c-28.1305,28.1305 -43.934,66.2835 -43.934,106.066c0,39.7825 15.8035,77.9356 43.934,106.066c28.1304,28.1305 66.2835,43.934 106.066,43.934c39.7825,0 77.9356,-15.8035 106.066,-43.934c28.1305,-28.1304 43.934,-66.2835 43.934,-106.066z" vector-effect="non-scaling-stroke" stroke-width="1px" stroke="#000000" fill="none"/>
   <path id="svg_3" d="m0,438.7591l829.44,0l0,-438.7591l-829.44,0l0,438.7591z" vector-effect="non-scaling-stroke" stroke-width="1px" stroke="#000000" fill="none"/>
  </symbol>
  <symbol data-fullcolor="0" data-stroke-width="8.42495" data-origin-symbol="svg_1" id="svg_1_image" overflow="visible">
   <image filter="url(#filter#3F51B5)" href="blob:https://studio.flux3dp.com/af7a517b-1781-4666-9071-fc54ba949814" height="438.75909" width="829.44" y="0" x="0"/>
  </symbol>
  <symbol data-image-symbol="svg_7_image" data-bbox="{&quot;x&quot;:0,&quot;y&quot;:0,&quot;width&quot;:830.44,&quot;height&quot;:296.31299}" id="svg_7" overflow="visible">
   <path id="svg_9" d="m0,0l0,264.4724l31.8406,31.8406l766.7588,0l31.8406,-31.8406l0,-264.4724l-830.44,0z" vector-effect="non-scaling-stroke" stroke-width="1px" stroke="#000000" fill="none"/>
  </symbol>
  <symbol data-fullcolor="0" data-stroke-width="9.84488" data-origin-symbol="svg_7" id="svg_7_image" overflow="visible">
   <image filter="url(#filter#3F51B5)" href="blob:https://studio.flux3dp.com/1139cea4-1f24-4c42-9474-a9e9bd70403d" height="296.31299" width="830.44" y="0" x="0"/>
  </symbol>
  <symbol data-image-symbol="svg_11_image" data-bbox="{&quot;x&quot;:0,&quot;y&quot;:0,&quot;width&quot;:830.44,&quot;height&quot;:488.38281}" id="svg_11" overflow="visible">
   <path id="svg_13" d="m0,0l0,456.2421l31.9069,32.1407l766.6262,0l31.9069,-32.1407l0,-456.2421l-830.44,0z" vector-effect="non-scaling-stroke" stroke-width="1px" stroke="#000000" fill="none"/>
  </symbol>
  <symbol data-fullcolor="0" data-stroke-width="7.56908" data-origin-symbol="svg_11" id="svg_11_image" overflow="visible">
   <image filter="url(#filter#3F51B5)" href="blob:https://studio.flux3dp.com/62705f46-f418-4f65-a645-80a8989331db" height="488.38281" width="830.44" y="0" x="0"/>
  </symbol>
  <symbol data-image-symbol="svg_15_image" data-bbox="{&quot;x&quot;:0,&quot;y&quot;:0,&quot;width&quot;:790.44,&quot;height&quot;:856.0495}" id="svg_15" overflow="visible">
   <path id="svg_17" d="m0,50.4084l0,805.6411l790.44,0l0,-332.1847l-305.4845,0l-239.8359,-428.3592l170.5778,-95.5056l-415.6974,50.4084z" vector-effect="non-scaling-stroke" stroke-width="1px" stroke="#000000" fill="none"/>
  </symbol>
  <symbol data-fullcolor="0" data-stroke-width="4.31846" data-origin-symbol="svg_15" id="svg_15_image" overflow="visible">
   <image filter="url(#filter#3F51B5)" href="blob:https://studio.flux3dp.com/863ff894-7d77-41cc-b6b6-30c054787ea4" height="856.0495" width="790.44" y="0" x="0"/>
  </symbol>
 </defs>
 <g data-focusStep="-2" data-focus="-2" data-printingStrength="100" data-kRatio="100" data-yRatio="100" data-mRatio="100" data-cRatio="100" data-wRepeat="1" data-wMultipass="3" data-wInk="-12" data-wSpeed="100" data-halftone="1" data-uv="0" data-multipass="3" data-backlash="0" data-module="15" data-diode="0" data-zstep="0" data-height="-3" data-repeat="1" data-ink="3" data-minPower="0" data-strength="15" data-printingSpeed="60" data-speed="20" data-color="#3F51B5" class="layer">
  <title>0</title>
  <filter color-interpolation-filters="sRGB" primitiveUnits="userSpaceOnUse" filterUnits="objectBoundingBox" id="filter#3F51B5">
   <feColorMatrix values="1 0 0 0 0.24705882352941178, 0 1 0 0 0.3176470588235294, 0 0 1 0 0.7098039215686275, 0 0 0 1 0" type="matrix"/>
  </filter>
  <use x="117.26268" y="299.39407" data-xform="x=0 y=0 width=829.4400024414062 height=438.75909423828125" data-ratiofixed="true" data-dxf="true" xlink:href="#svg_1" id="svg_6"/>
  <use x="1095.28333" y="359.27289" data-xform="x=0 y=0 width=830.4400024414062 height=296.31298828125" data-ratiofixed="true" data-dxf="true" xlink:href="#svg_7" id="svg_10"/>
  <use x="129.73743" y="835.80844" data-xform="x=0 y=0 width=830.4400024414062 height=488.3828125" data-ratiofixed="true" data-dxf="true" xlink:href="#svg_11" id="svg_14"/>
  <use x="1095.28333" y="755.97003" data-xform="x=0 y=0 width=790.4400024414062 height=856.0494995117188" data-ratiofixed="true" data-dxf="true" xlink:href="#svg_15" id="svg_18"/>
 </g>
</svg>